#!OML:ASF G:\JayActor3\Patient Classification 1\Patient 1\Session 2\male.ASF
:FULLY-SPECIFIED
:DEGREES
3916
root -40.0559 16.366 -3.37263 537.951 81.0526 174.986
lowerback 8.21164 -1.37315 -5.03173
upperback 11.581 -1.12683 -1.82384
thorax 7.73724 -0.566039 0.93196
lowerneck -4.71597 -2.70068 -0.541148
upperneck -0.0624707 -3.60957 10.9498
head 1.04613 -1.60067 3.55743
rclavicle -4.13472e-014 1.59028e-015
rhumerus -16.9846 8.17394 -70.1179
rradius 77.946
rwrist 14.7674
rhand -44.2883 13.9936
rfingers 7.12502
rthumb -17.0987 -15.2739
lclavicle -4.13472e-014 1.59028e-015
lhumerus 3.70741 -10.9514 56.2765
lradius 83.1296
lwrist 5.02433
lhand -25.1483 11.3681
lfingers 7.12502
lthumb 1.36836 41.3435
rfemur -40.5636 -9.22542 26.3632
rtibia 46.2302
rfoot -14.615 -17.55
rtoes 31.29
lfemur -15.0764 26.6519 -28.8219
ltibia 33.8345
lfoot -26.2383 31.3586
ltoes -2.60507
3917
root -40.0431 16.359 -3.38721 537.085 81.3759 174.073
lowerback 8.21088 -1.42158 -5.07432
upperback 11.613 -1.19096 -1.82219
thorax 7.77945 -0.602565 0.957183
lowerneck -4.75537 -2.6281 -0.456678
upperneck -0.097761 -3.51388 10.7818
head 1.02889 -1.55645 3.48501
rclavicle 9.93923e-015 1.90833e-014
rhumerus -17.0197 8.08851 -70.0506
rradius 77.9356
rwrist 14.7434
rhand -44.2893 13.9502
rfingers 7.12502
rthumb -17.0997 -15.3173
lclavicle 9.93923e-015 1.90833e-014
lhumerus 4.04978 -10.9965 56.288
lradius 83.1412
lwrist 4.9784
lhand -25.1213 11.3039
lfingers 7.12502
lthumb 1.39441 41.2791
rfemur -40.6007 -9.07702 26.2633
rtibia 46.304
rfoot -14.6632 -17.3765
rtoes 31.4874
lfemur -15.1281 26.8617 -29
ltibia 33.9374
lfoot -26.2511 31.5618
ltoes -2.67257
3918
root -40.0291 16.3523 -3.40201 536.226 81.6891 173.177
lowerback 8.21113 -1.47035 -5.09472
upperback 11.6473 -1.25446 -1.82326
thorax 7.82262 -0.63679 0.967162
lowerneck -4.79375 -2.55648 -0.379112
upperneck -0.128217 -3.41971 10.6231
head 1.01384 -1.51265 3.41733
rclavicle -9.54166e-015 7.95139e-015
rhumerus -17.0677 7.99722 -69.9955
rradius 77.9216
rwrist 14.7421
rhand -44.2974 13.8822
rfingers 7.12502
rthumb -17.1075 -15.3846
lclavicle -9.54166e-015 7.95139e-015
lhumerus 4.3801 -11.049 56.2921
lradius 83.1653
lwrist 4.94691
lhand -25.1402 11.2768
lfingers 7.12502
lthumb 1.37618 41.2522
rfemur -40.6224 -8.91728 26.1647
rtibia 46.3829
rfoot -14.6533 -17.2358
rtoes 31.466
lfemur -15.1648 27.0685 -29.1594
ltibia 34.0405
lfoot -26.2525 31.7688
ltoes -2.74655
3919
root -40.0155 16.3455 -3.41608 535.53 81.991 172.451
lowerback 8.23239 -1.5194 -5.08489
upperback 11.679 -1.31953 -1.81628
thorax 7.84973 -0.669515 0.969385
lowerneck -4.82903 -2.48627 -0.310701
upperneck -0.157335 -3.32715 10.473
head 0.999488 -1.46955 3.35454
rclavicle 1.86858e-014 3.18055e-015
rhumerus -17.1253 7.90434 -69.9471
rradius 77.9043
rwrist 14.766
rhand -44.3163 13.7988
rfingers 7.12502
rthumb -17.1256 -15.4664
lclavicle 1.86858e-014 3.18055e-015
lhumerus 4.70151 -11.1027 56.2939
lradius 83.2003
lwrist 4.92675
lhand -25.204 11.3068
lfingers 7.12502
lthumb 1.31459 41.2825
rfemur -40.6368 -8.72456 26.0908
rtibia 46.4606
rfoot -14.613 -17.1449
rtoes 31.2942
lfemur -15.2066 27.2513 -29.2799
ltibia 34.1546
lfoot -26.2625 31.9781
ltoes -2.79563
3920
root -40.0014 16.339 -3.42988 534.829 82.2873 171.728
lowerback 8.26322 -1.56609 -5.06677
upperback 11.7108 -1.38161 -1.80952
thorax 7.87092 -0.699857 0.966987
lowerneck -4.86093 -2.41704 -0.248613
upperneck -0.186916 -3.23554 10.3299
head 0.985024 -1.4269 3.29555
rclavicle 3.18055e-015 -7.95139e-015
rhumerus -17.1902 7.8075 -69.9043
rradius 77.8885
rwrist 14.798
rhand -44.3331 13.7304
rfingers 7.12502
rthumb -17.1418 -15.5334
lclavicle 3.18055e-015 -7.95139e-015
lhumerus 5.01258 -11.1594 56.289
lradius 83.2492
lwrist 4.90872
lhand -25.2815 11.357
lfingers 7.12502
lthumb 1.23966 41.3331
rfemur -40.6425 -8.51745 26.016
rtibia 46.5382
rfoot -14.599 -17.0633
rtoes 31.1645
lfemur -15.2416 27.423 -29.3874
ltibia 34.2756
lfoot -26.2847 32.1849
ltoes -2.84901
3921
root -39.9875 16.3321 -3.44309 534.165 82.5831 171.041
lowerback 8.30767 -1.60814 -5.03766
upperback 11.7357 -1.43893 -1.80148
thorax 7.87579 -0.726839 0.960293
lowerneck -4.88002 -2.35032 -0.191727
upperneck -0.223201 -3.14618 10.1939
head 0.9668 -1.38581 3.24013
rclavicle 4.92986e-014 -1.59028e-014
rhumerus -17.267 7.7079 -69.8663
rradius 77.8763
rwrist 14.8331
rhand -44.3465 13.6801
rfingers 7.12502
rthumb -17.1547 -15.5826
lclavicle 4.92986e-014 -1.59028e-014
lhumerus 5.31016 -11.2216 56.2766
lradius 83.3093
lwrist 4.88711
lhand -25.3428 11.3973
lfingers 7.12502
lthumb 1.18046 41.3737
rfemur -40.6513 -8.29015 25.9512
rtibia 46.6139
rfoot -14.8084 -16.8995
rtoes 31.7956
lfemur -15.2882 27.5827 -29.4823
ltibia 34.4084
lfoot -26.321 32.3891
ltoes -2.89271
3922
root -39.9736 16.325 -3.45593 533.459 82.882 170.307
lowerback 8.35835 -1.64587 -5.00973
upperback 11.7564 -1.49133 -1.79436
thorax 7.87209 -0.751328 0.95352
lowerneck -4.89737 -2.2844 -0.134012
upperneck -0.261984 -3.05772 10.0577
head 0.947722 -1.34527 3.1846
rclavicle -1.07344e-014 3.18055e-015
rhumerus -17.3455 7.61221 -69.8333
rradius 77.8655
rwrist 14.8688
rhand -44.362 13.6428
rfingers 7.12502
rthumb -17.1697 -15.6187
lclavicle -1.07344e-014 3.18055e-015
lhumerus 5.59765 -11.2797 56.2576
lradius 83.3774
lwrist 4.85661
lhand -25.3862 11.4235
lfingers 7.12502
lthumb 1.13856 41.4002
rfemur -40.6656 -8.05547 25.8896
rtibia 46.689
rfoot -15.0028 -16.7487
rtoes 32.352
lfemur -15.3395 27.7387 -29.5752
ltibia 34.5424
lfoot -26.3603 32.5859
ltoes -2.95021
3923
root -39.9599 16.3179 -3.46827 532.691 83.1835 169.506
lowerback 8.4057 -1.67908 -4.99309
upperback 11.7776 -1.53802 -1.78258
thorax 7.87135 -0.774217 0.957807
lowerneck -4.91084 -2.21982 -0.083529
upperneck -0.310339 -2.96987 9.92175
head 0.925312 -1.30546 3.13063
rclavicle 6.75868e-015 1.43125e-014
rhumerus -17.4109 7.523 -69.794
rradius 77.8525
rwrist 14.8985
rhand -44.3772 13.6228
rfingers 7.12502
rthumb -17.1843 -15.6374
lclavicle 6.75868e-015 1.43125e-014
lhumerus 5.88213 -11.3265 56.2382
lradius 83.4473
lwrist 4.81738
lhand -25.395 11.425
lfingers 7.12502
lthumb 1.13012 41.4018
rfemur -40.6896 -7.81404 25.8309
rtibia 46.763
rfoot -15.2154 -16.5944
rtoes 32.9672
lfemur -15.4009 27.8964 -29.6684
ltibia 34.6797
lfoot -26.4071 32.7609
ltoes -3.00642
3924
root -39.9456 16.311 -3.48045 531.747 83.4874 168.525
lowerback 8.44164 -1.70526 -4.98868
upperback 11.7989 -1.57463 -1.77694
thorax 7.87701 -0.792876 0.96203
lowerneck -4.90948 -2.15635 -0.0258293
upperneck -0.370326 -2.88246 9.78516
head 0.896654 -1.26657 3.07526
rclavicle 2.10712e-014 2.14687e-014
rhumerus -17.4776 7.42927 -69.7606
rradius 77.8366
rwrist 14.9211
rhand -44.3844 13.6252
rfingers 7.12502
rthumb -17.1912 -15.6344
lclavicle 2.10712e-014 2.14687e-014
lhumerus 6.16487 -11.3758 56.2137
lradius 83.5195
lwrist 4.77537
lhand -25.3981 11.423
lfingers 7.12502
lthumb 1.12711 41.3998
rfemur -40.7166 -7.5778 25.7625
rtibia 46.8379
rfoot -15.3041 -16.4818
rtoes 33.1994
lfemur -15.4592 28.0639 -29.7708
ltibia 34.8146
lfoot -26.4555 32.9151
ltoes -3.06283
